<?xml version="1.0" encoding="UTF-8"?>
<svg width="500px" height="369px" viewBox="0 0 500 369" version="1.1" xmlns="http://www.w3.org/2000/svg" xmlns:xlink="http://www.w3.org/1999/xlink">
    <title>Group 8</title>
    <defs>
        <polygon id="path-1" points="0.000308324769 0.16700925 499.654676 0.16700925 499.654676 367.420298 0.000308324769 367.420298"></polygon>
    </defs>
    <g id="Global-Assets" stroke="none" stroke-width="1" fill="none" fill-rule="evenodd">
        <g id="Group-8">
            <g id="Group-3" transform="translate(0.000000, 0.346865)">
                <mask id="mask-2" fill="white">
                    <use xlink:href="#path-1"></use>
                </mask>
                <g id="Clip-2"></g>
                <path d="M164.987975,267.479908 C164.02703,275.570863 163.233607,280.076516 162.611819,280.976824 C161.808119,281.908993 160.616444,282.489157 159.031655,282.718345 L156.069681,283.147431 L162.772148,226.58628 L164.35591,226.356578 C165.940699,226.126876 168.412436,226.176721 169.019836,226.904368 C169.432477,227.628931 169.190442,231.836023 168.307091,239.441367 L164.988489,267.479908 L164.987975,267.479908 Z M194.564543,342.400257 L187.354882,297.340647 C190.161151,295.409507 193.269579,293.323176 194.867215,290.78001 C196.356937,288.388438 197.46074,285.644347 198.17554,282.553392 C198.887256,279.46038 201.294245,260.551336 201.41963,259.402826 L204.405242,234.213207 C204.405242,234.213207 206.196095,217.781552 206.205917,214.790802 C206.212025,211.802621 205.730524,209.288232 204.765468,207.251747 C201.709455,200.901285 192.61593,198.821634 177.478212,201.013823 L116.111819,209.902312 L128.161151,233.204985 L113.827646,354.15 L148.24594,349.164902 L153.242857,306.999435 L155.762898,306.63407 L162.516752,347.042086 L194.564543,342.400257 Z M53.7623844,129.464491 C52.8014388,137.554933 52.0085303,142.0611 51.3862282,142.961408 C50.5820144,143.893063 49.3913669,144.473741 47.8060637,144.703443 L44.8435766,145.132528 L51.546557,88.5703494 L53.1303186,88.3411614 C54.7151079,88.1114594 57.1868448,88.1613052 57.7937307,88.8889517 C58.2068859,89.6140288 57.964851,93.8206064 57.0820144,101.425951 L53.7628983,129.464491 L53.7623844,129.464491 Z M83.3384378,204.384841 L76.1292909,159.325745 C78.9355601,157.39409 82.0439877,155.307246 83.64111,152.764594 C85.1318602,150.372508 86.235149,147.628417 86.9499486,144.537461 C87.661665,141.444964 90.0686536,122.535406 90.1940391,121.38741 L93.1801644,96.1972765 C93.1801644,96.1972765 94.9710175,79.7661357 94.9803165,76.7753854 C94.9859198,73.7872045 94.5054471,71.272816 93.5398767,69.2363309 C90.4843782,62.8858684 81.3898253,60.8062179 66.2526208,62.998407 L4.88622816,71.8868962 L16.9355601,95.1890545 L0.000308324769,238.096043 L37.0203494,211.149486 L42.0172662,168.984018 L44.5373073,168.618654 L51.2911614,209.02667 L83.3384378,204.384841 Z M215.532682,160.392035 C215.249024,161.383813 213.615416,162.097585 212.103597,162.316495 C210.591778,162.535406 209.165776,162.264594 209.116958,161.321634 C209.116444,161.318551 209.16372,160.431089 209.195581,160.077544 C209.196095,160.070349 209.197122,160.062127 209.197636,160.054933 C209.582528,155.782066 211.362076,140.263566 214.543474,113.420812 C217.724358,86.5775437 219.624666,71.0420863 220.257246,66.7332477 C220.258273,66.7260534 220.259301,66.7178314 220.260329,66.7106372 C220.31223,66.3545221 220.456115,65.5153649 220.472559,65.4752826 C220.474101,65.4711716 220.477184,65.4501028 220.478726,65.4465057 C220.756732,64.4557554 222.297328,63.7553443 223.809661,63.5364337 C225.32148,63.3175231 226.839979,63.5749743 226.89445,64.5174203 C226.952004,64.8308839 223.105139,96.4937821 221.762898,107.817009 L255.89702,102.873022 C260.156526,66.9290339 260.515725,58.3159815 259.795786,53.2543165 C259.072765,48.1957348 256.425797,44.0945015 251.845118,40.9526721 C246.019836,37.1777492 237.484892,36.1011819 226.237205,37.7301644 C209.443268,40.1628469 197.577903,46.977852 190.642138,58.174666 C188.167318,62.338592 186.359507,67.4927544 185.220247,73.6371531 C184.077903,79.7841213 182.101028,94.7471223 179.282425,118.528212 C176.464337,142.308787 174.902158,157.212179 174.602055,163.237359 C174.299383,169.260483 174.927852,174.061614 176.484892,177.641264 C180.962795,187.185457 191.598458,190.740956 208.392909,188.308787 C219.640596,186.679291 228.733094,183.049281 235.67297,177.425437 C241.170915,172.82369 244.899075,167.799024 246.867215,162.350411 C248.832785,156.900257 250.537821,148.091932 254.797842,112.148458 L220.664234,117.092446 C219.321994,128.415673 215.667831,160.050822 215.532682,160.392035 L215.532682,160.392035 Z M177.034224,74.8226619 C177.334327,68.8000514 176.706372,63.998407 175.151901,60.4182425 C170.671429,50.8750771 160.032169,47.3195786 143.243885,49.7512333 C126.452518,52.1834018 114.584584,58.9989209 107.651901,70.195221 C105.176567,74.359147 103.365673,79.5138232 102.229496,85.6577081 C101.087153,91.8046763 99.1071942,106.768191 96.2891059,130.549281 C93.4699897,154.334481 91.9108941,169.237359 91.6113052,175.257914 C91.305036,181.283607 91.9365879,186.084224 93.4941418,189.661819 C96.4371017,195.93777 102.1,199.570863 110.369784,200.667472 L128.681706,142.791316 L128.381603,139.717318 L124.121583,140.335509 L116.411922,153.737873 L118.674512,135.022559 L124.666804,125.803135 C123.354882,111.532323 129.448921,86.9439363 140.078417,77.9480473 C147.714594,88.3817575 148.133916,107.860689 144.151901,124.027698 L147.958171,131.389466 L145.77112,149.480421 L141.08407,137.875077 L136.55221,138.532323 L135.515211,141.811357 L140.854882,196.255344 C149.685817,192.682888 156.42888,187.252261 160.994656,179.884841 C163.465879,175.723998 165.274717,170.569836 166.416547,164.422354 C167.55221,158.281038 169.535766,143.317009 172.353854,119.531809 C175.171942,95.7507194 176.728983,80.8483556 177.034224,74.8226619 L177.034224,74.8226619 Z M65.0768756,311.154625 L77.9530319,239.885355 L78.4540596,239.812898 L74.5948613,309.776413 L65.0768756,311.154625 Z M108.702261,210.975797 L32.7988695,221.96963 L47.0979445,249.49481 L21.9787256,367.420298 L56.5414183,362.414132 L60.235149,339.543628 L72.7567318,337.730164 L71.0660843,360.310329 L105.629291,355.304162 L108.702261,210.975797 Z M300.202261,172.973227 L333.843577,168.100668 L327.783453,91.1068345 L349.949949,21.8504111 L315.061973,26.9038541 L299.41963,82.4439363 L305.843063,28.2394142 L270.952004,33.2928571 L253.598972,179.723484 L288.490031,174.670041 L294.522405,123.764594 L297.53371,118.79594 L300.202261,172.973227 Z M410.48592,191.720401 L410.986948,191.647431 L407.127235,261.610946 L397.610277,262.989671 L410.48592,191.720401 Z M469.284481,252.607862 L439.230524,256.960894 L441.234635,162.810329 L386.135971,170.791316 L354.511614,319.255344 L389.073792,314.249178 L392.768037,291.37816 L405.28962,289.564697 L403.598458,312.145375 L438.162693,307.139209 L438.639568,284.725026 L453.866701,282.519476 L469.284481,252.607862 Z M264.881089,332.237873 L282.229496,185.841161 L311.283967,181.633042 L325.28962,246.226567 L333.322508,178.440853 L367.13186,173.543628 L349.782939,319.939825 L322.235149,323.930576 L306.996711,257.272816 L298.693011,327.340134 L264.881089,332.237873 Z M200.345118,341.585252 L217.697636,195.154625 L273.176053,187.119168 L269.957143,214.287718 L246.143679,217.737359 L242.284481,250.302621 L265.341521,246.96295 L262.146249,273.924409 L239.089209,277.26408 L235.206372,310.034892 L259.018808,306.585766 L255.823535,333.549281 L200.345118,341.585252 Z M418.263412,155.873022 L432.421686,36.4038541 L415.957657,38.7887461 L419.152929,11.8272867 L499.654985,0.166957862 L484.934018,28.7979959 L467.68222,31.2969681 L453.52446,150.765622 L418.263412,155.873022 Z M339.393422,167.296968 L356.74594,20.8663412 L412.224358,12.8308839 L409.004419,39.9999486 L385.191984,43.449075 L381.332785,76.0143371 L404.389311,72.674666 L401.194553,99.6361254 L378.137513,102.975797 L374.253649,135.746095 L398.066598,132.297482 L394.87184,159.260997 L339.393422,167.296968 Z" id="Fill-1" fill="#FFFFFF" mask="url(#mask-2)"></path>
            </g>
            <polygon id="Fill-4" fill="#FFFFFF" points="454.141829 297.449846 454.141829 298.741727 451.926516 299.067523 451.926516 305.069579 450.369476 305.298767 450.369476 299.297225 448.144399 299.624563 448.144399 298.333196"></polygon>
            <path d="M459.958068,296.593217 L462.184173,296.265365 L462.184173,303.559301 L460.74224,303.771531 L460.74224,298.837821 C460.74224,298.695992 460.743782,298.497122 460.747379,298.240699 C460.750976,297.984789 460.752518,297.787461 460.752518,297.649229 L459.349126,303.976567 L457.846043,304.198047 L456.452929,298.282323 C456.452929,298.421069 456.454985,298.617369 456.457554,298.872765 C456.461151,299.12816 456.462693,299.326002 456.462693,299.468345 L456.462693,304.401542 L455.021274,304.613772 L455.021274,297.320349 L457.272559,296.9889 L458.619938,302.525385 L459.958068,296.593217 Z" id="Fill-6" fill="#FFFFFF"></path>
        </g>
    </g>
</svg>