<svg xmlns="http://www.w3.org/2000/svg" width="100" height="100" viewBox="0 0 100 100">
  <g fill="none" fill-rule="evenodd">
    <rect width="100" height="100" fill="#FF1E3C" rx="12"/>
    <path fill="#FFF" fill-rule="nonzero" d="M50.142872 55.3685128C50.9594342 55.371227 51.7333403 55.3929412 51.7333403 55.3929412 61.4028183 55.7932041 67.2193418 57.8762295 70.7181736 61.0015145 70.5783649 61.0005143 70.4349654 61 70.2884796 61 68.817561 61 67.4858285 61.5962007 66.5218041 62.5602251 65.7738392 63.30819 65.2472432 64.2775806 65.0487861 65.3616558 62.4917311 63.6469653 58.305966 62.7287768 51.456007 62.4447059L48.5440078 62.4447059C35.013111 62.9996471 31.889688 66.0050937 31.1514712 72.7136414L31.1274795 72.9411765 57.1718872 72.9410581C57.0597095 73.3714254 57 73.8229794 57 74.2884796L57 78.7115204C57 79.1561585 57.0544789 79.5880782 57.1571286 80.0009673L24.0000099 80 24.0003655 78.9171494C24.0151921 67.2665628 24.6170467 56.3618 48.2666746 55.3929412 48.2666746 55.3775 48.9089827 55.3701654 49.6548034 55.3685731L50.142872 55.3685128zM50.0000074 20C58.6156471 20 65.600003 27.1107716 65.600003 35.8823529 65.600003 44.6539343 58.6156471 51.7647059 50.0000074 51.7647059 41.3843678 51.7647059 34.4000119 44.6539343 34.4000119 35.8823529 34.4000119 27.1107716 41.3843678 20 50.0000074 20zM50.0000074 27.0588235C45.213541 27.0588235 41.3333432 31.0092522 41.3333432 35.8823529 41.3333432 40.7554537 45.213541 44.7058824 50.0000074 44.7058824 54.7864739 44.7058824 58.6666716 40.7554537 58.6666716 35.8823529 58.6666716 31.0092522 54.7864739 27.0588235 50.0000074 27.0588235zM74.7307551 86C75.3042467 86 75.7691837 85.535063 75.7692449 84.9615102L75.7692449 79.7692449 80.9615102 79.7692449C81.5350018 79.7692449 82 79.3043079 82 78.7307551L82 75.2692449C82 74.6957533 81.535063 74.2308163 80.9615102 74.2307551L75.7692449 74.2307551 75.7692449 69.0384898C75.7692449 68.4649982 75.3043079 68 74.7307551 68L71.2692449 68C70.6957533 68 70.2308163 68.464937 70.2307551 69.0384898L70.2307551 74.2307551 65.0384898 74.2307551C64.4649982 74.2307551 64 74.6956921 64 75.2692449L64 78.7307551C64 79.3042467 64.464937 79.7691837 65.0384898 79.7692449L70.2307551 79.7692449 70.2307551 84.9615102C70.2307551 85.5350018 70.6956921 86 71.2692449 86L74.7307551 86z"/>
  </g>
</svg>
