<svg xmlns="http://www.w3.org/2000/svg" xmlns:xlink="http://www.w3.org/1999/xlink" width="100" height="100" viewBox="0 0 100 100">
  <defs>
    <path id="eaglobalnav_iconalert-a" d="M79.3247005,66.5482208 C81.2474083,69.8600996 78.8339715,74 74.9937642,74 L25.0056534,74 C21.1580504,74 18.7557594,69.8536817 20.6747172,66.5482208 L45.6690851,23.4828228 C47.5927304,20.1693911 52.4107498,20.175395 54.3309576,23.4828228 L79.3247005,66.5482208 Z M50.0000213,57.6445314 C47.3536679,57.6445314 45.208356,59.7764357 45.208356,62.4062501 C45.208356,65.0360645 47.3536679,67.1679688 50.0000213,67.1679688 C52.6463748,67.1679688 54.7916866,65.0360645 54.7916866,62.4062501 C54.7916866,59.7764357 52.6463748,57.6445314 50.0000213,57.6445314 Z M45.4507518,40.528637 L46.2234599,54.6067619 C46.2596057,55.2655353 46.8077306,55.7812502 47.4715846,55.7812502 L52.5284581,55.7812502 C53.1923121,55.7812502 53.7404369,55.2655353 53.7765828,54.6067619 L54.5492909,40.528637 C54.5883534,39.8170706 54.0182494,39.2187503 53.3011662,39.2187503 L46.6987723,39.2187503 C45.9816892,39.2187503 45.4116893,39.8170706 45.4507518,40.528637 L45.4507518,40.528637 Z"/>
  </defs>
  <g fill="none" fill-rule="evenodd">
    <rect width="100" height="100" fill="#FF1E3C" rx="12"/>
    <use fill="#FFF" fill-rule="nonzero" xlink:href="#eaglobalnav_iconalert-a"/>
  </g>
</svg>
