<svg xmlns="http://www.w3.org/2000/svg" width="100" height="100" viewBox="0 0 100 100">
  <g fill="none" fill-rule="evenodd">
    <rect width="100" height="100" fill="#FF1E3C" rx="12"/>
    <path fill="#FFF" fill-rule="nonzero" d="M49.3237745,17.0012877 C49.6931556,17.024983 49.9684493,17.3461862 49.9449275,17.7165353 C49.9362157,17.86134 49.88046,17.992103 49.7968266,18.0965379 C48.2827117,20.2089317 47.3296382,22.6179556 46.9585147,25.1138625 C46.936735,25.2885057 47.0961614,25.4885995 47.3191841,25.4701699 C48.7113333,25.3139563 50.1374587,25.2770969 51.5853635,25.3753886 C64.8125242,26.257381 74.8206661,37.7741831 73.9468703,51.0953398 C73.7221053,54.5548562 72.7794861,57.7949716 71.2836661,60.6822899 C66.6150004,69.961201 59.473048,77.1724758 51.0678816,81.9027633 C51.0574273,81.9062738 50.8980009,82.0142193 50.6784629,81.9984222 C50.3125663,81.9729717 50.0311744,81.6535238 50.0538252,81.2840525 C50.0651505,81.1383701 50.1200351,81.0084845 50.2036688,80.903172 C51.7177834,78.7881456 52.6725993,76.3791216 53.0411092,73.8876026 C53.0620175,73.7103267 52.9034626,73.5128658 52.6786976,73.5286627 C51.2891616,73.6883867 49.861294,73.7199804 48.413389,73.6234438 C35.1870997,72.7414514 25.175473,61.2246494 26.0536247,47.9017373 C26.2801321,44.4430987 27.2192666,41.2038611 28.7150866,38.3156649 C33.3872371,29.0358764 40.5248335,21.8263565 48.9308713,17.0978242 C48.9404544,17.0925586 49.1024943,16.987246 49.3237745,17.0012877 Z M40.6154365,48.8732454 C40.2713194,54.0914812 44.1951245,58.6076331 49.3777879,58.9534092 C54.564807,59.2956749 59.042684,55.3447 59.3850585,50.1220765 C59.7283043,44.9029635 55.8044994,40.3876888 50.6235785,40.043668 C45.4391727,39.6970143 40.9586823,43.6479892 40.6154365,48.8732454 Z"/>
  </g>
</svg>
