<svg xmlns="http://www.w3.org/2000/svg" xmlns:xlink="http://www.w3.org/1999/xlink" width="100" height="100" viewBox="0 0 100 100">
  <defs>
    <path id="eaglobalnav_iconlink-a" d="M56.6199294,43.3804192 C62.221212,48.987502 62.1443369,57.9770782 56.6536794,63.4981924 C56.6433669,63.5094424 56.6311794,63.5216298 56.6199294,63.5328798 L50.3199278,69.8328675 C44.763364,75.3894192 35.723143,75.3886692 30.1674229,69.8328675 C24.610859,64.2772534 24.610859,55.236021 30.1674229,49.6804069 L33.6461112,46.2017262 C34.5686115,45.279228 36.1572994,45.8923518 36.2049244,47.1960367 C36.2656744,48.857471 36.563612,50.5266865 37.1133621,52.1386208 C37.2995496,52.6844323 37.1665184,53.2881811 36.7587058,53.6959928 L35.5317992,54.9228966 C32.9043611,57.550329 32.8219548,61.8285081 35.4235179,64.481628 C38.0507686,67.160904 42.3690821,67.1768414 45.016489,64.5294404 L51.3164906,58.2303902 C53.9593975,55.5874891 53.9483349,51.3156849 51.3164906,48.6838463 C50.9695217,48.3375345 50.6200216,48.0684725 50.3470216,47.8805041 C49.9554089,47.6115844 49.7139313,47.173401 49.6957402,46.6986939 C49.6586152,45.7080396 50.0096152,44.6871979 50.7924279,43.9043869 L52.7662409,41.9304845 C53.2838348,41.4128918 54.0958037,41.3493294 54.6959914,41.7682036 C55.3833371,42.2481553 56.027131,42.7876398 56.6199294,43.3804192 Z M69.8325888,30.1671325 C64.2768687,24.6113308 55.2366478,24.6105808 49.6800839,30.1671325 L43.3800824,36.4671202 C43.3688324,36.4783702 43.3566449,36.4905576 43.3463324,36.5018076 C37.8557685,42.0229218 37.7787998,51.012498 43.3800824,56.6195808 C43.9728457,57.2123334 44.6166089,57.7517871 45.3039266,58.2317027 C45.9041142,58.6505769 46.7161769,58.5869207 47.2336771,58.0694217 L49.20749,56.0955193 C49.9903027,55.3127084 50.3413028,54.2918666 50.3041778,53.3012123 C50.2859867,52.8265053 50.0445091,52.3883219 49.6528964,52.1194021 C49.3798963,51.9314337 49.0303962,51.6623718 48.6834274,51.3160599 C46.051583,48.6842213 46.0405205,44.4124172 48.6834274,41.7695161 L54.983429,35.4704659 C57.6308358,32.8230648 61.9490557,32.8390023 64.5764,35.5182783 C67.1779632,38.1713981 67.0956507,42.4495772 64.4681188,45.0770096 L63.2412122,46.3039135 C62.8333996,46.7117252 62.7003683,47.315474 62.8865559,47.8612854 C63.436306,49.4732198 63.7342436,51.1424353 63.7949936,52.8038695 C63.8427124,54.1075545 65.4313065,54.7206783 66.3538067,53.7981801 L69.8324951,50.3194994 C75.3891527,44.763979 75.3891527,35.7227466 69.8325888,30.1671325 L69.8325888,30.1671325 Z"/>
  </defs>
  <g fill="none" fill-rule="evenodd">
    <rect width="100" height="100" fill="#FF1E3C" rx="12"/>
    <use fill="#FFF" fill-rule="nonzero" xlink:href="#eaglobalnav_iconlink-a"/>
  </g>
</svg>
