<svg xmlns="http://www.w3.org/2000/svg" width="100" height="100" viewBox="0 0 100 100">
  <g fill="none" fill-rule="evenodd">
    <rect width="100" height="100" fill="#FF1E3C" rx="12"/>
    <path fill="#FFF" fill-rule="nonzero" d="M16.8589091 87.1818182L17.7621818 85.2312727 21.5847273 85.2312727 22.5141818 87.1818182 24.4254545 87.1818182 19.7127273 77.6254545 15 87.1818182 16.8589091 87.1818182zM20.9170909 83.8305455L18.4167273 83.8305455 19.6472727 81.16 20.9170909 83.8305455zM29.3083636 87.1818182C31.0887273 87.1818182 32.3716364 86.0690909 32.3716364 84.5243636 32.3716364 83.5949091 31.8087273 82.8094545 30.9185455 82.4036364 31.6123636 81.9847273 32.0443636 81.304 32.0443636 80.4923636 32.0443636 79.0523636 30.8923636 78.0181818 29.3083636 78.0181818L24.9490909 78.0181818 24.9490909 87.1818182 29.3083636 87.1818182zM29.0465455 81.7229091L26.7556364 81.7229091 26.7556364 79.6021818 29.0465455 79.6021818C29.7534545 79.6021818 30.2509091 80.0472727 30.2509091 80.6756364 30.2509091 81.2909091 29.7534545 81.7229091 29.0465455 81.7229091zM29.1774545 85.624L26.7556364 85.624 26.7556364 83.2152727 29.1774545 83.2152727C30.0021818 83.2152727 30.5781818 83.6996364 30.5781818 84.3934545 30.5781818 85.1134545 30.0021818 85.624 29.1774545 85.624zM37.8043636 87.3127273C40.0690909 87.3127273 41.9410909 85.7810909 42.3730909 83.5556364L40.6058182 83.5556364C40.2261818 84.8516364 39.1134545 85.6632727 37.8043636 85.6632727 36.1941818 85.6632727 34.8850909 84.3934545 34.8850909 82.6130909 34.8850909 80.7934545 36.1941818 79.5367273 37.8043636 79.5367273 39.1134545 79.5367273 40.2261818 80.3483636 40.6058182 81.6443636L42.3730909 81.6443636C41.9410909 79.4189091 40.0690909 77.8872727 37.8043636 77.8872727 35.1992727 77.8872727 33.0916364 79.8770909 33.0916364 82.6130909 33.0916364 85.3229091 35.1992727 87.3127273 37.8043636 87.3127273zM46.68 87.1818182C49.3243636 87.1818182 51.4581818 85.2443636 51.4581818 82.6130909 51.4581818 79.9556364 49.3243636 78.0181818 46.68 78.0181818L43.3418182 78.0181818 43.3418182 87.1818182 46.68 87.1818182zM46.68 85.5978182L45.1745455 85.5978182 45.1745455 79.6283636 46.68 79.6283636C48.3425455 79.6283636 49.6647273 80.8458182 49.6647273 82.6130909 49.6647273 84.3541818 48.3425455 85.5978182 46.68 85.5978182zM57.1265455 83.3723636L57.1265455 81.9585455 52.2174545 81.9585455 52.2174545 83.3723636 57.1265455 83.3723636zM63.8421818 87.1818182L63.8421818 85.7156364 61.6167273 85.7156364 61.6167273 78.0181818 58.2392727 78.0181818 57.6894545 79.4843636 59.928 79.4843636 59.928 85.7156364 57.6894545 85.7156364 57.6894545 87.1818182 63.8421818 87.1818182zM70.9112727 87.1818182L70.9112727 85.7156364 67.3374545 85.7156364 69.0916364 83.7258182C70.3876364 82.2465455 70.6625455 81.592 70.6625455 80.6756364 70.6625455 79.0785455 69.3403636 77.9003636 67.6254545 77.9003636 65.7403636 77.9003636 64.2087273 79.1963636 64.2218182 81.2778182L65.8058182 81.2778182C65.8843636 80.0996364 66.5912727 79.3665455 67.5730909 79.3665455 68.3585455 79.3665455 69 79.9163636 69 80.728 69 81.3301818 68.856 81.7752727 67.8741818 82.9141818L64.1956364 87.1818182 70.9112727 87.1818182zM74.7338182 87.2996364C76.5796364 87.2996364 77.9672727 86.0036364 77.9672727 84.3018182 77.9672727 82.7178182 76.8938182 81.736 75.1789091 81.592L77.9541818 78.0181818 71.5134545 78.0181818 71.5134545 79.4843636 75.192 79.4843636 72.4952727 82.9010909 74.6029091 82.9010909C75.6763636 82.9010909 76.3178182 83.4770909 76.3178182 84.3541818 76.3178182 85.1658182 75.624 85.8334545 74.7469091 85.8334545 73.8305455 85.8334545 73.1498182 85.2443636 73.0189091 84.3018182L71.3956364 84.3018182C71.5527273 86.0690909 72.9403636 87.2996364 74.7338182 87.2996364zM85.0887273 87.1818182L85.0887273 85.1265455 86.0705455 85.1265455 86.0705455 83.6865455 85.0887273 83.6865455 85.0887273 81.4872727 83.4523636 81.4872727 83.4523636 83.6865455 80.7163636 83.6865455 84.0152727 77.9789091 82.3396364 77.9789091 78.2421818 85.1265455 83.4523636 85.1265455 83.4523636 87.1818182 85.0887273 87.1818182zM49.5825325 13.0011238C49.9015435 13.0218034 50.1392971 13.3021262 50.1189828 13.6253399 50.111459 13.7517149 50.0633064 13.8658354 49.9910775 13.9569786 48.6834329 15.8005222 47.8603239 17.9029431 47.5398082 20.0811891 47.5209984 20.233605 47.6586849 20.4082323 47.8512953 20.3921482 49.053606 20.2558164 50.2852598 20.2236482 51.5357231 20.30943 62.95918 21.0791688 71.6025753 31.1301962 70.8479335 42.755933 70.6538182 45.7751472 69.839738 48.6028843 68.5478935 51.1227257 64.515864 59.2206845 58.3478142 65.5141607 51.0888068 69.6424116 51.0797781 69.6454753 50.9420917 69.7396823 50.7524907 69.7258957 50.4364891 69.7036844 50.1934688 69.4248935 50.2130309 69.1024458 50.2228118 68.9753048 50.2702121 68.8619501 50.3424412 68.770041 51.6500856 66.9241998 52.4746994 64.8217788 52.7929579 62.6473623 52.8110151 62.4926488 52.6740813 62.3203192 52.4799661 62.3341056 51.2799123 62.4735011 50.0467539 62.5010738 48.7962905 62.4168237 37.3735861 61.6470848 28.7271812 51.5960577 29.485585 39.9687889 29.681205 36.9503407 30.4922757 34.1233697 31.7841202 31.6027621 35.8191593 23.5040376 41.9834471 17.212093 49.243207 13.0853738 49.2514833 13.0807784 49.3914269 12.9888693 49.5825325 13.0011238zM42.0616951 40.8166506C41.7645031 45.3707472 45.1532439 49.3121162 49.6291804 49.6138844 54.1088788 49.912589 57.9761362 46.4644654 58.2718233 41.9065395 58.5682628 37.3516772 55.1795222 33.4110739 50.7050906 33.1108375 46.2276492 32.8083034 42.3581347 36.2564269 42.0616951 40.8166506z"/>
  </g>
</svg>
