<svg xmlns="http://www.w3.org/2000/svg" width="100" height="100" viewBox="0 0 100 100">
  <g fill="none" fill-rule="evenodd">
    <rect width="100" height="100" fill="#FF1E3C" rx="12"/>
    <path fill="#FFF" fill-rule="nonzero" d="M49.142872,55.3685128 C49.9594342,55.371227 50.7333403,55.3929412 50.7333403,55.3929412 C74.948,56.3952941 75.0000099,67.9505882 75.0000099,80 L75.0000099,80 L23.0000099,80 C23.0000099,67.9505882 22.8856149,56.3917647 47.2666746,55.3929412 C47.2666746,55.3775 47.9089827,55.3701654 48.6548034,55.3685731 Z M50.456007,62.4447059 L47.5440078,62.4447059 C33.8610784,63.0058824 30.8208126,66.0729412 30.1274795,72.9411765 L30.1274795,72.9411765 L67.865602,72.9411765 C67.1618689,66.08 64.0730698,63.0094118 50.456007,62.4447059 L50.456007,62.4447059 Z M49.0000074,20 C57.6156471,20 64.600003,27.1107716 64.600003,35.8823529 C64.600003,44.6539343 57.6156471,51.7647059 49.0000074,51.7647059 C40.3843678,51.7647059 33.4000119,44.6539343 33.4000119,35.8823529 C33.4000119,27.1107716 40.3843678,20 49.0000074,20 Z M49.0000074,27.0588235 C44.213541,27.0588235 40.3333432,31.0092522 40.3333432,35.8823529 C40.3333432,40.7554537 44.213541,44.7058824 49.0000074,44.7058824 C53.7864739,44.7058824 57.6666716,40.7554537 57.6666716,35.8823529 C57.6666716,31.0092522 53.7864739,27.0588235 49.0000074,27.0588235 Z"/>
  </g>
</svg>
