<?xml version="1.0" encoding="utf-8"?>
<!-- Generator: Adobe Illustrator 23.0.2, SVG Export Plug-In . SVG Version: 6.00 Build 0)  -->
<svg version="1.1" baseProfile="tiny" id="Layer_1" xmlns="http://www.w3.org/2000/svg" xmlns:xlink="http://www.w3.org/1999/xlink"
	 x="0px" y="0px" width="191px" height="57px" viewBox="0 0 191 57" xml:space="preserve">
<path fill="#FFFFFF" stroke="#929497" stroke-width="0.35" stroke-miterlimit="10" d="M174.74,0H62.32h1.48H0.26v29.03
	c0,6.19,4.85,11.28,11.04,11.6l1.61,0.08C15.07,50.04,23.44,57,33.41,57c0.02,0,0.03,0,0.03,0l0.01,0h30.2h-1.5h112.58h-1.59h10.46
	c4,0,7.24-3.2,7.24-7.15V7.15c0-3.95-3.24-7.15-7.24-7.15h-10.46"/>
<g>
	<path fill="#5FC323" d="M6.24,5.98V29c0,3.66,2.87,6.61,6.48,6.8c-0.19-9.89,6.82-18.74,16.86-20.51c1.18-0.21,2.37-0.32,3.57-0.32
		c9.93,0,18.38,7.11,20.11,16.89c0.23,1.33,0.32,2.64,0.3,3.94c3.6-0.2,6.47-3.15,6.47-6.8V5.98H6.24z"/>
	<path d="M26.58,35.4c0-3.64,2.95-6.58,6.59-6.58c3.64,0,6.58,2.95,6.58,6.58H26.58z M17.48,35.41c0,8.61,7.01,15.61,15.61,15.61
		c4.18,0,8.11-1.63,11.06-4.6l-3.18-3.16c-2.1,2.12-4.9,3.28-7.88,3.28c-6.14,0-11.12-4.99-11.12-11.12
		c0-6.13,4.98-11.12,11.12-11.12c6.14,0,11.12,4.99,11.12,11.12h4.49c0-8.6-7-15.6-15.6-15.6C24.5,19.8,17.48,26.81,17.48,35.41"/>
</g>
<g>
	<path fill="#004676" d="M64.83,47.82c0-0.63,0.08-1.19,0.24-1.7c0.16-0.5,0.38-0.93,0.66-1.28c0.28-0.35,0.61-0.62,0.99-0.81
		c0.38-0.19,0.8-0.28,1.25-0.28c0.43,0,0.81,0.1,1.13,0.29c0.32,0.2,0.59,0.42,0.79,0.67l-0.5,0.63c-0.19-0.22-0.39-0.4-0.62-0.53
		c-0.23-0.13-0.49-0.2-0.79-0.2c-0.34,0-0.64,0.07-0.91,0.22c-0.27,0.15-0.5,0.36-0.7,0.63c-0.19,0.28-0.34,0.61-0.45,1
		c-0.11,0.39-0.16,0.83-0.16,1.31c0,0.49,0.05,0.94,0.16,1.33c0.1,0.39,0.25,0.73,0.44,1.01c0.19,0.28,0.41,0.49,0.68,0.64
		s0.57,0.23,0.91,0.23c0.34,0,0.64-0.08,0.9-0.23s0.5-0.37,0.73-0.64l0.5,0.61c-0.28,0.36-0.59,0.64-0.95,0.84
		c-0.35,0.2-0.75,0.3-1.2,0.3c-0.44,0-0.85-0.09-1.23-0.27c-0.38-0.18-0.7-0.45-0.98-0.79c-0.28-0.35-0.49-0.77-0.64-1.28
		C64.9,49.03,64.83,48.46,64.83,47.82z"/>
	<path fill="#004676" d="M70.9,48.85c0-0.49,0.07-0.92,0.2-1.29c0.13-0.38,0.31-0.7,0.53-0.96c0.22-0.26,0.48-0.46,0.77-0.6
		c0.29-0.13,0.6-0.2,0.92-0.2s0.63,0.07,0.92,0.2c0.29,0.14,0.55,0.33,0.77,0.6s0.4,0.58,0.53,0.96c0.13,0.38,0.2,0.81,0.2,1.29
		c0,0.48-0.07,0.91-0.2,1.28c-0.13,0.38-0.31,0.7-0.53,0.96s-0.48,0.46-0.77,0.59c-0.29,0.13-0.6,0.2-0.92,0.2s-0.63-0.07-0.92-0.2
		c-0.29-0.14-0.55-0.33-0.77-0.59c-0.22-0.26-0.4-0.58-0.53-0.96C70.96,49.75,70.9,49.32,70.9,48.85z M71.81,48.85
		c0,0.33,0.04,0.64,0.11,0.91c0.07,0.27,0.17,0.5,0.31,0.7c0.13,0.19,0.29,0.35,0.48,0.45c0.19,0.11,0.39,0.16,0.61,0.16
		s0.43-0.05,0.61-0.16c0.19-0.11,0.35-0.26,0.48-0.45c0.13-0.2,0.23-0.43,0.31-0.7c0.07-0.27,0.11-0.57,0.11-0.91
		c0-0.33-0.04-0.64-0.11-0.91s-0.17-0.51-0.31-0.71c-0.13-0.2-0.29-0.35-0.48-0.46c-0.19-0.11-0.39-0.16-0.61-0.16
		s-0.43,0.05-0.61,0.16c-0.19,0.11-0.35,0.26-0.48,0.46c-0.13,0.2-0.23,0.44-0.31,0.71S71.81,48.51,71.81,48.85z"/>
	<path fill="#004676" d="M77.11,45.93h0.73l0.08,0.84h0.03c0.25-0.28,0.51-0.51,0.79-0.7c0.28-0.19,0.6-0.28,0.96-0.28
		c0.55,0,0.95,0.19,1.21,0.57s0.38,0.95,0.38,1.7v3.68h-0.88v-3.55c0-0.55-0.08-0.95-0.24-1.19c-0.16-0.24-0.41-0.36-0.75-0.36
		c-0.27,0-0.51,0.08-0.72,0.23c-0.21,0.15-0.44,0.37-0.71,0.67v4.2h-0.88V45.93z"/>
	<path fill="#004676" d="M85.31,46.73h-0.77v-0.74l0.82-0.06l0.11-1.62h0.74v1.62h1.41v0.8H86.2v3.22c0,0.36,0.06,0.63,0.18,0.83
		c0.12,0.2,0.33,0.29,0.63,0.29c0.09,0,0.19-0.02,0.3-0.05c0.11-0.03,0.2-0.07,0.29-0.11l0.17,0.74c-0.14,0.06-0.3,0.11-0.47,0.15
		c-0.17,0.04-0.33,0.07-0.5,0.07c-0.28,0-0.51-0.05-0.7-0.14s-0.34-0.23-0.46-0.39c-0.12-0.17-0.2-0.37-0.25-0.61
		c-0.05-0.24-0.08-0.5-0.08-0.79V46.73z"/>
	<path fill="#004676" d="M88.3,48.85c0-0.48,0.07-0.91,0.2-1.28c0.13-0.38,0.31-0.7,0.53-0.96c0.22-0.26,0.47-0.46,0.75-0.6
		c0.28-0.14,0.57-0.21,0.87-0.21c0.33,0,0.62,0.06,0.89,0.19c0.26,0.13,0.48,0.31,0.66,0.55c0.18,0.24,0.31,0.53,0.4,0.86
		c0.09,0.33,0.14,0.71,0.14,1.12c0,0.21-0.01,0.39-0.03,0.54h-3.52c0.04,0.63,0.21,1.13,0.52,1.49c0.31,0.37,0.72,0.55,1.22,0.55
		c0.25,0,0.48-0.04,0.69-0.13c0.21-0.08,0.41-0.19,0.61-0.33l0.31,0.64c-0.23,0.16-0.48,0.3-0.76,0.42
		c-0.28,0.12-0.6,0.18-0.96,0.18c-0.35,0-0.68-0.07-0.98-0.21c-0.3-0.14-0.57-0.34-0.79-0.6c-0.23-0.26-0.4-0.57-0.53-0.95
		C88.36,49.75,88.3,49.32,88.3,48.85z M91.95,48.41c0-0.6-0.11-1.05-0.34-1.37s-0.54-0.47-0.95-0.47c-0.19,0-0.36,0.04-0.53,0.12
		c-0.17,0.08-0.32,0.2-0.46,0.36s-0.25,0.35-0.34,0.57c-0.09,0.23-0.15,0.49-0.18,0.78H91.95z"/>
	<path fill="#004676" d="M93.63,48.85c0-0.49,0.07-0.92,0.2-1.29c0.14-0.38,0.32-0.7,0.55-0.96c0.23-0.26,0.5-0.46,0.8-0.6
		c0.3-0.13,0.62-0.2,0.96-0.2c0.34,0,0.64,0.07,0.89,0.21c0.25,0.14,0.46,0.3,0.64,0.48l-0.44,0.63c-0.16-0.15-0.32-0.27-0.49-0.37
		c-0.17-0.1-0.36-0.14-0.56-0.14c-0.24,0-0.46,0.05-0.66,0.16c-0.2,0.11-0.37,0.26-0.52,0.46c-0.14,0.2-0.26,0.44-0.34,0.71
		s-0.12,0.58-0.12,0.91c0,0.33,0.04,0.64,0.12,0.91c0.08,0.27,0.19,0.5,0.33,0.7c0.14,0.19,0.31,0.35,0.51,0.45
		c0.2,0.11,0.42,0.16,0.66,0.16c0.25,0,0.48-0.06,0.68-0.17s0.38-0.25,0.54-0.41l0.4,0.64c-0.24,0.23-0.5,0.41-0.79,0.55
		c-0.29,0.13-0.59,0.2-0.91,0.2c-0.34,0-0.67-0.07-0.97-0.2c-0.3-0.14-0.56-0.33-0.78-0.59c-0.22-0.26-0.39-0.58-0.52-0.96
		C93.69,49.75,93.63,49.32,93.63,48.85z"/>
	<path fill="#004676" d="M98.91,45.93h0.73l0.08,0.84h0.03c0.25-0.28,0.51-0.51,0.79-0.7c0.28-0.19,0.6-0.28,0.96-0.28
		c0.55,0,0.95,0.19,1.21,0.57s0.38,0.95,0.38,1.7v3.68h-0.88v-3.55c0-0.55-0.08-0.95-0.24-1.19c-0.16-0.24-0.41-0.36-0.75-0.36
		c-0.27,0-0.51,0.08-0.72,0.23c-0.21,0.15-0.44,0.37-0.71,0.67v4.2h-0.88V45.93z"/>
	<path fill="#004676" d="M104.4,48.85c0-0.49,0.07-0.92,0.2-1.29c0.13-0.38,0.31-0.7,0.53-0.96c0.22-0.26,0.48-0.46,0.77-0.6
		c0.29-0.13,0.6-0.2,0.92-0.2s0.63,0.07,0.92,0.2c0.29,0.14,0.55,0.33,0.77,0.6s0.4,0.58,0.53,0.96c0.13,0.38,0.2,0.81,0.2,1.29
		c0,0.48-0.07,0.91-0.2,1.28c-0.13,0.38-0.31,0.7-0.53,0.96s-0.48,0.46-0.77,0.59c-0.29,0.13-0.6,0.2-0.92,0.2s-0.63-0.07-0.92-0.2
		c-0.29-0.14-0.55-0.33-0.77-0.59c-0.22-0.26-0.4-0.58-0.53-0.96C104.47,49.75,104.4,49.32,104.4,48.85z M105.32,48.85
		c0,0.33,0.04,0.64,0.11,0.91c0.07,0.27,0.17,0.5,0.31,0.7c0.13,0.19,0.29,0.35,0.48,0.45c0.19,0.11,0.39,0.16,0.61,0.16
		s0.43-0.05,0.61-0.16c0.19-0.11,0.35-0.26,0.48-0.45c0.13-0.2,0.23-0.43,0.31-0.7c0.07-0.27,0.11-0.57,0.11-0.91
		c0-0.33-0.04-0.64-0.11-0.91s-0.17-0.51-0.31-0.71c-0.13-0.2-0.29-0.35-0.48-0.46c-0.19-0.11-0.39-0.16-0.61-0.16
		s-0.43,0.05-0.61,0.16c-0.19,0.11-0.35,0.26-0.48,0.46c-0.13,0.2-0.23,0.44-0.31,0.71S105.32,48.51,105.32,48.85z"/>
	<path fill="#004676" d="M110.61,43.24h0.88v7.4c0,0.16,0.03,0.27,0.08,0.33c0.05,0.06,0.11,0.09,0.17,0.09c0.03,0,0.06,0,0.08,0
		c0.02,0,0.06-0.01,0.11-0.02l0.12,0.74c-0.06,0.03-0.13,0.06-0.2,0.07c-0.08,0.02-0.18,0.02-0.3,0.02c-0.34,0-0.58-0.11-0.72-0.33
		c-0.14-0.22-0.21-0.55-0.21-0.98V43.24z"/>
	<path fill="#004676" d="M112.97,48.85c0-0.49,0.07-0.92,0.2-1.29c0.13-0.38,0.31-0.7,0.53-0.96c0.22-0.26,0.48-0.46,0.77-0.6
		c0.29-0.13,0.6-0.2,0.92-0.2s0.63,0.07,0.92,0.2c0.29,0.14,0.55,0.33,0.77,0.6s0.4,0.58,0.53,0.96c0.13,0.38,0.2,0.81,0.2,1.29
		c0,0.48-0.07,0.91-0.2,1.28c-0.13,0.38-0.31,0.7-0.53,0.96s-0.48,0.46-0.77,0.59c-0.29,0.13-0.6,0.2-0.92,0.2s-0.63-0.07-0.92-0.2
		c-0.29-0.14-0.55-0.33-0.77-0.59c-0.22-0.26-0.4-0.58-0.53-0.96C113.03,49.75,112.97,49.32,112.97,48.85z M113.88,48.85
		c0,0.33,0.04,0.64,0.11,0.91c0.07,0.27,0.17,0.5,0.31,0.7c0.13,0.19,0.29,0.35,0.48,0.45c0.19,0.11,0.39,0.16,0.61,0.16
		s0.43-0.05,0.61-0.16c0.19-0.11,0.35-0.26,0.48-0.45c0.13-0.2,0.23-0.43,0.31-0.7c0.07-0.27,0.11-0.57,0.11-0.91
		c0-0.33-0.04-0.64-0.11-0.91s-0.17-0.51-0.31-0.71c-0.13-0.2-0.29-0.35-0.48-0.46c-0.19-0.11-0.39-0.16-0.61-0.16
		s-0.43,0.05-0.61,0.16c-0.19,0.11-0.35,0.26-0.48,0.46c-0.13,0.2-0.23,0.44-0.31,0.71S113.88,48.51,113.88,48.85z"/>
	<path fill="#004676" d="M118.78,52.85c0-0.25,0.07-0.48,0.2-0.7c0.14-0.22,0.32-0.43,0.56-0.61v-0.05
		c-0.13-0.09-0.24-0.21-0.33-0.36c-0.09-0.16-0.13-0.35-0.13-0.58c0-0.25,0.06-0.46,0.18-0.64c0.12-0.18,0.25-0.33,0.39-0.43v-0.05
		c-0.17-0.16-0.33-0.37-0.47-0.64s-0.21-0.58-0.21-0.93c0-0.32,0.05-0.6,0.16-0.86c0.1-0.25,0.25-0.47,0.42-0.65
		c0.18-0.18,0.39-0.32,0.63-0.41c0.24-0.1,0.49-0.14,0.76-0.14c0.14,0,0.28,0.01,0.4,0.04c0.13,0.03,0.24,0.06,0.34,0.1h1.82v0.75
		h-1.07c0.12,0.14,0.22,0.31,0.31,0.51s0.12,0.43,0.12,0.68c0,0.31-0.05,0.59-0.15,0.84s-0.24,0.46-0.41,0.63s-0.37,0.3-0.61,0.4
		c-0.23,0.1-0.48,0.14-0.75,0.14c-0.13,0-0.26-0.02-0.4-0.05c-0.14-0.04-0.27-0.08-0.39-0.15c-0.09,0.09-0.17,0.19-0.24,0.29
		s-0.1,0.24-0.1,0.4c0,0.18,0.06,0.33,0.19,0.45s0.37,0.18,0.73,0.18h1.01c0.61,0,1.07,0.11,1.37,0.33c0.3,0.22,0.46,0.57,0.46,1.06
		c0,0.27-0.06,0.53-0.18,0.77c-0.12,0.24-0.3,0.46-0.53,0.64c-0.23,0.18-0.51,0.33-0.83,0.44c-0.33,0.11-0.69,0.16-1.1,0.16
		c-0.32,0-0.62-0.03-0.88-0.1c-0.27-0.07-0.49-0.17-0.68-0.3c-0.19-0.14-0.34-0.3-0.44-0.49C118.83,53.32,118.78,53.1,118.78,52.85z
		 M119.55,52.72c0,0.31,0.13,0.56,0.4,0.74c0.27,0.18,0.64,0.27,1.11,0.27c0.25,0,0.48-0.03,0.68-0.1c0.2-0.07,0.38-0.16,0.52-0.26
		c0.14-0.11,0.25-0.23,0.33-0.38s0.12-0.29,0.12-0.44c0-0.27-0.09-0.46-0.27-0.56s-0.44-0.16-0.78-0.16h-0.9
		c-0.1,0-0.21-0.01-0.33-0.02c-0.12-0.01-0.23-0.04-0.35-0.08c-0.19,0.15-0.32,0.31-0.41,0.48S119.55,52.55,119.55,52.72z
		 M120.94,49.24c0.15,0,0.29-0.03,0.42-0.1c0.13-0.06,0.25-0.16,0.35-0.27c0.1-0.12,0.18-0.26,0.24-0.44
		c0.06-0.17,0.09-0.36,0.09-0.58c0-0.43-0.11-0.76-0.32-1c-0.21-0.23-0.48-0.35-0.78-0.35s-0.57,0.12-0.78,0.35
		c-0.21,0.24-0.32,0.57-0.32,1c0,0.21,0.03,0.41,0.09,0.58c0.06,0.17,0.14,0.32,0.24,0.44c0.1,0.12,0.22,0.21,0.35,0.27
		C120.65,49.21,120.79,49.24,120.94,49.24z"/>
	<path fill="#004676" d="M125.05,44.74c-0.17,0-0.32-0.06-0.44-0.18s-0.18-0.27-0.18-0.45c0-0.19,0.06-0.34,0.18-0.46
		c0.12-0.12,0.26-0.17,0.44-0.17s0.32,0.06,0.44,0.17c0.12,0.12,0.18,0.27,0.18,0.46c0,0.18-0.06,0.33-0.18,0.45
		S125.22,44.74,125.05,44.74z M124.59,45.93h0.88v5.8h-0.88V45.93z"/>
	<path fill="#004676" d="M126.98,50.23c0-0.64,0.26-1.12,0.77-1.46c0.51-0.34,1.33-0.58,2.44-0.71c0-0.18-0.02-0.36-0.05-0.54
		s-0.09-0.33-0.17-0.47c-0.08-0.13-0.19-0.24-0.33-0.33c-0.14-0.08-0.31-0.12-0.53-0.12c-0.31,0-0.59,0.06-0.85,0.19
		c-0.26,0.13-0.5,0.27-0.7,0.43l-0.35-0.68c0.24-0.17,0.54-0.34,0.89-0.51s0.74-0.25,1.16-0.25c0.64,0,1.1,0.22,1.39,0.65
		c0.29,0.43,0.43,1.01,0.43,1.74v3.56h-0.73l-0.08-0.69h-0.02c-0.25,0.23-0.52,0.43-0.81,0.59s-0.6,0.25-0.92,0.25
		c-0.44,0-0.81-0.14-1.1-0.43C127.13,51.16,126.98,50.76,126.98,50.23z M127.85,50.16c0,0.33,0.09,0.57,0.26,0.72
		c0.18,0.14,0.39,0.21,0.65,0.21c0.25,0,0.49-0.07,0.71-0.2c0.23-0.13,0.46-0.32,0.71-0.58V48.7c-0.44,0.06-0.81,0.14-1.11,0.23
		s-0.54,0.19-0.73,0.31c-0.18,0.12-0.31,0.26-0.39,0.41C127.89,49.81,127.85,49.98,127.85,50.16z"/>
</g>
<g>
	<g>
		<path d="M94.64,8.66v10.76h-2.97V8.66h-4.11V5.92h11.18v2.74H94.64z"/>
		<path d="M108.44,19.42l-2.89-4.32h-2.33v4.32h-2.97V5.92h6.16c3.19,0,5.09,1.68,5.09,4.45v0.04c0,2.18-1.17,3.55-2.89,4.18
			l3.3,4.82H108.44z M108.5,10.53c0-1.27-0.89-1.93-2.33-1.93h-2.95v3.88h3c1.45,0,2.28-0.77,2.28-1.91V10.53z"/>
		<path d="M119.43,19.63c-3.63,0-5.84-2.02-5.84-6V5.92h2.97v7.63c0,2.2,1.1,3.33,2.91,3.33c1.81,0,2.91-1.1,2.91-3.24V5.92h2.97
			v7.61C125.34,17.62,123.05,19.63,119.43,19.63z"/>
		<path d="M132.79,19.61c-2.05,0-4.11-0.71-5.73-2.16l1.75-2.1c1.21,1,2.49,1.64,4.03,1.64c1.21,0,1.95-0.48,1.95-1.27v-0.04
			c0-0.75-0.46-1.14-2.72-1.71c-2.72-0.69-4.47-1.45-4.47-4.13V9.8c0-2.45,1.96-4.07,4.72-4.07c1.97,0,3.64,0.62,5.01,1.72
			l-1.54,2.23c-1.19-0.83-2.37-1.33-3.51-1.33c-1.13,0-1.73,0.52-1.73,1.18v0.04c0,0.89,0.58,1.18,2.91,1.77
			c2.73,0.71,4.27,1.7,4.27,4.05v0.04C137.73,18.11,135.69,19.61,132.79,19.61z"/>
		<path d="M145.28,8.66v10.76h-2.97V8.66h-4.11V5.92h11.18v2.74H145.28z"/>
		<path d="M158.63,15.27h-7.19c0.29,1.33,1.22,2.02,2.53,2.02c0.98,0,1.7-0.31,2.51-1.06l1.67,1.48c-0.96,1.2-2.35,1.93-4.22,1.93
			c-3.1,0-5.4-2.18-5.4-5.34v-0.04c0-2.95,2.1-5.38,5.1-5.38c3.45,0,5.03,2.68,5.03,5.61v0.04C158.67,14.83,158.65,15,158.63,15.27z
			 M153.63,11.24c-1.2,0-2,0.87-2.23,2.2h4.41C155.64,12.13,154.87,11.24,153.63,11.24z"/>
	</g>
</g>
<g>
	<path fill="#004676" d="M136.9,45.25h-2.53v-1.26h6.5v1.26h-2.53v6.41h-1.45V45.25z M142.23,51.66v-4.25
		c0.24-0.14,0.61-0.22,1.04-0.22c0.29,0,0.57,0.03,0.84,0.11l0.35-1.14c-0.35-0.13-0.75-0.18-1.23-0.18c-1.06,0-1.91,0.42-2.33,0.79
		v4.89H142.23z M149.14,46.16v4.26c-0.34,0.14-0.71,0.21-1.15,0.21c-1.12,0-1.36-0.51-1.36-1.42v-3.06h-1.35v3.45
		c0,1.36,0.78,2.22,2.53,2.22c1.24,0,2.1-0.32,2.67-0.59v-5.08H149.14z M151.61,50.97c0,0,0.78,0.82,2.16,0.82
		c1.32,0,2.13-0.74,2.13-1.67c0-1.79-2.71-1.7-2.71-2.48c0-0.35,0.35-0.5,0.71-0.5c0.85,0,1.37,0.48,1.37,0.48l0.51-1.03
		c0,0-0.61-0.63-1.87-0.63c-1.2,0-2.13,0.6-2.13,1.64c0,1.79,2.71,1.68,2.71,2.52c0,0.33-0.34,0.5-0.73,0.5
		c-0.91,0-1.52-0.61-1.52-0.61L151.61,50.97z M157.07,49.61c0,1.87,1.54,2.1,2.32,2.1c0.26,0,0.43-0.03,0.43-0.03v-1.21
		c0,0-0.1,0.02-0.25,0.02c-0.38,0-1.1-0.13-1.1-1.05v-2.08h1.27v-1.19h-1.27v-1.61h-1.36L157.07,49.61z M169.48,51.66v-4.25
		c0.24-0.14,0.61-0.22,1.04-0.22c0.29,0,0.57,0.03,0.84,0.11l0.35-1.14c-0.35-0.13-0.75-0.18-1.23-0.18c-1.06,0-1.91,0.42-2.33,0.79
		v4.89H169.48z M174.83,46.05c-1.8,0-2.95,1.3-2.95,2.85c0,1.58,1.15,2.85,2.95,2.85c1.46,0,2.24-0.89,2.24-0.89l-0.52-0.96
		c0,0-0.68,0.69-1.6,0.69c-1.03,0-1.69-0.79-1.69-1.71c0-0.93,0.65-1.68,1.65-1.68c0.85,0,1.42,0.59,1.42,0.59l0.6-0.93
		C176.92,46.86,176.25,46.05,174.83,46.05 M165.25,49.67h-2.54l-0.68,1.95h-1.42l2.66-7.57h1.42l2.66,7.57h-1.42L165.25,49.67z
		 M164.85,48.55l-0.88-2.49l-0.88,2.49H164.85z"/>
</g>
<line fill="none" stroke="#231F20" stroke-width="0.5" stroke-miterlimit="10" x1="65.34" y1="40.24" x2="176.34" y2="40.23"/>
<g>
	<path d="M68.3,24.5h3.02c0.54,0,1.04,0.05,1.48,0.15c0.45,0.1,0.83,0.26,1.15,0.49c0.32,0.22,0.56,0.52,0.74,0.89
		s0.26,0.82,0.26,1.36c0,0.52-0.09,0.97-0.26,1.35s-0.42,0.7-0.74,0.94c-0.32,0.25-0.7,0.44-1.15,0.56
		c-0.45,0.13-0.94,0.19-1.48,0.19h-1.77v3.9H68.3V24.5z M71.17,29.42c0.86,0,1.5-0.16,1.91-0.49c0.41-0.33,0.62-0.84,0.62-1.54
		c0-0.71-0.21-1.2-0.63-1.48c-0.42-0.27-1.06-0.41-1.91-0.41h-1.62v3.92H71.17z"/>
	<path d="M76.82,27.05h1.02l0.11,1.32h0.04c0.25-0.46,0.55-0.83,0.91-1.1c0.35-0.27,0.74-0.4,1.16-0.4c0.29,0,0.55,0.05,0.78,0.15
		L80.6,28.1c-0.12-0.04-0.23-0.07-0.33-0.09c-0.1-0.02-0.22-0.03-0.38-0.03c-0.31,0-0.63,0.13-0.97,0.38
		c-0.34,0.25-0.63,0.69-0.88,1.31v4.68h-1.23V27.05z"/>
	<path d="M82.66,25.55c-0.24,0-0.44-0.08-0.61-0.22c-0.17-0.15-0.25-0.34-0.25-0.57c0-0.24,0.08-0.43,0.25-0.58
		c0.17-0.15,0.37-0.22,0.61-0.22c0.24,0,0.44,0.07,0.61,0.22c0.17,0.14,0.25,0.34,0.25,0.58c0,0.23-0.08,0.42-0.25,0.57
		C83.1,25.48,82.9,25.55,82.66,25.55z M82.03,27.05h1.23v7.29h-1.23V27.05z"/>
	<path d="M84.67,27.05h1.28l1.38,4.14c0.11,0.36,0.22,0.72,0.34,1.08c0.11,0.36,0.23,0.72,0.34,1.07h0.06
		c0.11-0.35,0.22-0.71,0.33-1.07c0.11-0.36,0.22-0.72,0.33-1.08l1.38-4.14h1.21l-2.58,7.29h-1.44L84.67,27.05z"/>
	<path d="M92.06,32.46c0-0.8,0.36-1.41,1.07-1.84s1.85-0.72,3.41-0.89c0-0.23-0.02-0.46-0.07-0.67s-0.12-0.42-0.24-0.58
		c-0.12-0.17-0.27-0.31-0.46-0.41c-0.19-0.1-0.43-0.16-0.73-0.16c-0.43,0-0.83,0.08-1.19,0.24s-0.69,0.34-0.98,0.54l-0.5-0.86
		c0.34-0.22,0.75-0.43,1.25-0.64s1.03-0.31,1.62-0.31c0.89,0,1.54,0.27,1.94,0.82c0.4,0.54,0.6,1.27,0.6,2.18v4.47h-1.02l-0.11-0.87
		h-0.03c-0.35,0.29-0.73,0.54-1.13,0.74c-0.41,0.21-0.83,0.31-1.28,0.31c-0.62,0-1.13-0.18-1.54-0.54
		C92.27,33.62,92.06,33.11,92.06,32.46z M93.28,32.36c0,0.42,0.12,0.72,0.37,0.9s0.55,0.27,0.91,0.27c0.35,0,0.68-0.08,1-0.25
		c0.32-0.17,0.65-0.41,1-0.73v-2.02c-0.61,0.08-1.12,0.17-1.55,0.28c-0.42,0.11-0.76,0.24-1.01,0.39c-0.25,0.15-0.44,0.32-0.55,0.52
		C93.33,31.92,93.28,32.13,93.28,32.36z"/>
	<path d="M99.56,30.71c0-0.61,0.09-1.15,0.28-1.63c0.19-0.47,0.45-0.88,0.77-1.21c0.32-0.33,0.69-0.58,1.12-0.75
		s0.87-0.25,1.34-0.25c0.48,0,0.89,0.09,1.24,0.26c0.34,0.17,0.64,0.38,0.89,0.61l-0.62,0.79c-0.22-0.19-0.45-0.35-0.68-0.46
		c-0.23-0.12-0.5-0.18-0.79-0.18c-0.33,0-0.64,0.07-0.92,0.2c-0.28,0.13-0.52,0.33-0.72,0.58c-0.2,0.25-0.36,0.55-0.47,0.89
		c-0.12,0.34-0.17,0.73-0.17,1.15s0.05,0.8,0.17,1.14s0.26,0.63,0.46,0.88c0.19,0.25,0.43,0.43,0.71,0.57
		c0.28,0.14,0.58,0.2,0.92,0.2c0.35,0,0.67-0.07,0.95-0.22c0.28-0.14,0.54-0.32,0.76-0.52l0.56,0.81c-0.33,0.29-0.7,0.52-1.1,0.69
		c-0.41,0.17-0.83,0.25-1.27,0.25c-0.48,0-0.93-0.08-1.35-0.25s-0.78-0.42-1.09-0.74c-0.31-0.33-0.55-0.72-0.72-1.2
		C99.65,31.85,99.56,31.31,99.56,30.71z"/>
	<path d="M106.81,36.42c0.1,0.03,0.2,0.04,0.29,0.04c0.42,0,0.76-0.15,1.03-0.44c0.26-0.3,0.47-0.67,0.62-1.12l0.17-0.54l-2.93-7.3
		h1.28l1.49,4.04c0.11,0.32,0.23,0.66,0.35,1.01c0.12,0.35,0.24,0.7,0.35,1.04h0.06c0.11-0.33,0.21-0.67,0.31-1.04
		c0.1-0.36,0.2-0.7,0.3-1.02l1.3-4.04h1.2l-2.75,7.89c-0.13,0.36-0.28,0.7-0.44,1.01c-0.16,0.31-0.35,0.58-0.57,0.8
		c-0.22,0.23-0.47,0.4-0.75,0.53c-0.28,0.13-0.61,0.19-0.98,0.19c-0.17,0-0.32-0.01-0.46-0.04c-0.14-0.03-0.27-0.06-0.39-0.11
		l0.24-0.98C106.62,36.38,106.71,36.4,106.81,36.42z"/>
	<path d="M115.84,24.5h1.33l1.58,5.31c0.18,0.59,0.34,1.14,0.47,1.64c0.13,0.5,0.3,1.04,0.49,1.62h0.06
		c0.18-0.58,0.34-1.12,0.48-1.62c0.14-0.5,0.29-1.04,0.46-1.64l1.58-5.31h1.27l-3.12,9.84h-1.46L115.84,24.5z"/>
	<path d="M124.03,30.71c0-0.6,0.09-1.14,0.28-1.61c0.18-0.48,0.43-0.88,0.73-1.21c0.31-0.33,0.65-0.58,1.04-0.76
		c0.39-0.18,0.79-0.26,1.21-0.26c0.46,0,0.87,0.08,1.24,0.24c0.37,0.16,0.67,0.39,0.92,0.69s0.43,0.66,0.56,1.08s0.2,0.89,0.2,1.41
		c0,0.27-0.01,0.5-0.04,0.67h-4.92c0.05,0.79,0.29,1.42,0.73,1.88c0.43,0.46,1,0.69,1.7,0.69c0.35,0,0.67-0.05,0.97-0.16
		c0.29-0.1,0.58-0.24,0.85-0.41l0.43,0.81c-0.32,0.2-0.67,0.38-1.07,0.53c-0.39,0.15-0.83,0.22-1.33,0.22
		c-0.49,0-0.95-0.09-1.37-0.26c-0.42-0.18-0.79-0.43-1.11-0.75c-0.31-0.33-0.56-0.72-0.74-1.19
		C124.12,31.85,124.03,31.31,124.03,30.71z M129.13,30.16c0-0.75-0.16-1.32-0.47-1.72c-0.31-0.4-0.76-0.59-1.33-0.59
		c-0.26,0-0.51,0.05-0.74,0.16c-0.23,0.11-0.45,0.26-0.64,0.45c-0.19,0.2-0.35,0.44-0.47,0.72c-0.12,0.29-0.21,0.61-0.25,0.98
		H129.13z"/>
	<path d="M132.01,27.05h1.02l0.11,1.32h0.04c0.25-0.46,0.55-0.83,0.91-1.1c0.35-0.27,0.74-0.4,1.16-0.4c0.29,0,0.55,0.05,0.78,0.15
		l-0.24,1.08c-0.12-0.04-0.23-0.07-0.33-0.09c-0.1-0.02-0.22-0.03-0.38-0.03c-0.31,0-0.63,0.13-0.97,0.38
		c-0.34,0.25-0.63,0.69-0.88,1.31v4.68h-1.23V27.05z"/>
	<path d="M137.84,25.55c-0.24,0-0.44-0.08-0.61-0.22c-0.17-0.15-0.25-0.34-0.25-0.57c0-0.24,0.08-0.43,0.25-0.58
		c0.17-0.15,0.37-0.22,0.61-0.22c0.24,0,0.44,0.07,0.61,0.22c0.17,0.14,0.25,0.34,0.25,0.58c0,0.23-0.08,0.42-0.25,0.57
		C138.28,25.48,138.08,25.55,137.84,25.55z M137.21,27.05h1.23v7.29h-1.23V27.05z"/>
	<path d="M144.19,24.67c-0.27-0.12-0.54-0.18-0.82-0.18c-0.68,0-1.02,0.47-1.02,1.41v1.16h1.54v1h-1.54v6.29h-1.23v-6.29h-0.99
		v-0.93l0.99-0.08V25.9c0-0.75,0.17-1.34,0.52-1.77c0.35-0.43,0.88-0.65,1.61-0.65c0.23,0,0.45,0.02,0.65,0.07
		c0.21,0.05,0.39,0.1,0.56,0.17L144.19,24.67z"/>
	<path d="M145.91,25.55c-0.24,0-0.44-0.08-0.61-0.22c-0.17-0.15-0.25-0.34-0.25-0.57c0-0.24,0.08-0.43,0.25-0.58
		c0.17-0.15,0.37-0.22,0.61-0.22c0.24,0,0.44,0.07,0.61,0.22c0.17,0.14,0.25,0.34,0.25,0.58c0,0.23-0.08,0.42-0.25,0.57
		C146.35,25.48,146.15,25.55,145.91,25.55z M145.28,27.05h1.23v7.29h-1.23V27.05z"/>
	<path d="M148.43,30.71c0-0.61,0.09-1.15,0.28-1.63c0.19-0.47,0.45-0.88,0.77-1.21c0.32-0.33,0.69-0.58,1.12-0.75
		s0.87-0.25,1.34-0.25c0.48,0,0.89,0.09,1.24,0.26c0.34,0.17,0.64,0.38,0.89,0.61l-0.62,0.79c-0.22-0.19-0.45-0.35-0.68-0.46
		c-0.23-0.12-0.5-0.18-0.79-0.18c-0.33,0-0.64,0.07-0.92,0.2c-0.28,0.13-0.52,0.33-0.72,0.58c-0.2,0.25-0.36,0.55-0.47,0.89
		c-0.12,0.34-0.17,0.73-0.17,1.15s0.05,0.8,0.17,1.14s0.26,0.63,0.46,0.88c0.19,0.25,0.43,0.43,0.71,0.57
		c0.28,0.14,0.58,0.2,0.92,0.2c0.35,0,0.67-0.07,0.95-0.22c0.28-0.14,0.54-0.32,0.76-0.52l0.56,0.81c-0.33,0.29-0.7,0.52-1.1,0.69
		c-0.41,0.17-0.83,0.25-1.27,0.25c-0.48,0-0.93-0.08-1.35-0.25s-0.78-0.42-1.09-0.74c-0.31-0.33-0.55-0.72-0.72-1.2
		C148.52,31.85,148.43,31.31,148.43,30.71z"/>
	<path d="M155.3,32.46c0-0.8,0.36-1.41,1.07-1.84s1.85-0.72,3.41-0.89c0-0.23-0.02-0.46-0.07-0.67s-0.12-0.42-0.24-0.58
		c-0.12-0.17-0.27-0.31-0.46-0.41c-0.19-0.1-0.43-0.16-0.73-0.16c-0.43,0-0.83,0.08-1.19,0.24s-0.69,0.34-0.98,0.54l-0.5-0.86
		c0.34-0.22,0.75-0.43,1.25-0.64s1.03-0.31,1.62-0.31c0.89,0,1.54,0.27,1.94,0.82c0.4,0.54,0.6,1.27,0.6,2.18v4.47H160l-0.11-0.87
		h-0.03c-0.35,0.29-0.73,0.54-1.13,0.74c-0.41,0.21-0.83,0.31-1.28,0.31c-0.62,0-1.13-0.18-1.54-0.54
		C155.5,33.62,155.3,33.11,155.3,32.46z M156.52,32.36c0,0.42,0.12,0.72,0.37,0.9s0.55,0.27,0.91,0.27c0.35,0,0.68-0.08,1-0.25
		c0.32-0.17,0.65-0.41,1-0.73v-2.02c-0.61,0.08-1.12,0.17-1.55,0.28c-0.42,0.11-0.76,0.24-1.01,0.39c-0.25,0.15-0.44,0.32-0.55,0.52
		C156.57,31.92,156.52,32.13,156.52,32.36z"/>
	<path d="M163.55,28.06h-1.08v-0.93l1.14-0.08l0.15-2.04h1.03v2.04h1.97v1h-1.97v4.05c0,0.45,0.08,0.8,0.25,1.04
		s0.46,0.37,0.88,0.37c0.13,0,0.27-0.02,0.42-0.06c0.15-0.04,0.28-0.08,0.4-0.13l0.24,0.93c-0.2,0.07-0.42,0.13-0.65,0.19
		c-0.24,0.05-0.47,0.08-0.7,0.08c-0.39,0-0.72-0.06-0.98-0.18c-0.27-0.12-0.48-0.29-0.65-0.5s-0.28-0.46-0.35-0.76
		s-0.1-0.63-0.1-0.99V28.06z"/>
	<path d="M167.78,32.46c0-0.8,0.36-1.41,1.07-1.84s1.85-0.72,3.41-0.89c0-0.23-0.02-0.46-0.07-0.67s-0.12-0.42-0.24-0.58
		c-0.12-0.17-0.27-0.31-0.46-0.41c-0.19-0.1-0.43-0.16-0.73-0.16c-0.43,0-0.83,0.08-1.19,0.24s-0.69,0.34-0.98,0.54l-0.5-0.86
		c0.34-0.22,0.75-0.43,1.25-0.64s1.03-0.31,1.62-0.31c0.89,0,1.54,0.27,1.94,0.82c0.4,0.54,0.6,1.27,0.6,2.18v4.47h-1.02l-0.11-0.87
		h-0.03c-0.35,0.29-0.73,0.54-1.13,0.74c-0.41,0.21-0.83,0.31-1.28,0.31c-0.62,0-1.13-0.18-1.54-0.54
		C167.98,33.62,167.78,33.11,167.78,32.46z M169,32.36c0,0.42,0.12,0.72,0.37,0.9s0.55,0.27,0.91,0.27c0.35,0,0.68-0.08,1-0.25
		c0.32-0.17,0.65-0.41,1-0.73v-2.02c-0.61,0.08-1.12,0.17-1.55,0.28c-0.42,0.11-0.76,0.24-1.01,0.39c-0.25,0.15-0.44,0.32-0.55,0.52
		C169.05,31.92,169,32.13,169,32.36z"/>
</g>
<g>
</g>
<g>
</g>
<g>
</g>
<g>
</g>
<g>
</g>
<g>
</g>
</svg>
