<svg xmlns="http://www.w3.org/2000/svg" viewBox="0 0 1518.08 447.66"><defs><style>.cls-1{fill:#fff;}</style></defs><g id="Layer_2" data-name="Layer 2"><g id="Layer_3" data-name="Layer 3"><path class="cls-1" d="M1441.33,0h-67.77V298.44h68.61c41.79,0,52-19.18,52-52.44V52.43C1494.19,20,1483.53,0,1441.33,0Zm13.21,246.43c0,9.38-3.41,14.49-14.07,14.49h-27.25V37.35h26.83c10.65,0,14.49,4.69,14.49,14.92ZM1100.26,0h98.14V37.52h-58.49v91.66h58.49v36.67h-71.65v95.07h71.65v37.52H1087.1V165.85h13.16Zm-98.52,0h39.64V298.44h-39.64ZM859.37,0h98.14V37.52H899v91.66h58.5v36.67H899V298.44H859.37ZM711.62,0h98.14V37.52H751.27v91.66h58.49v36.67H751.27v95.07h58.49v37.52H711.62Zm-30,298.44H570.27V129.18h13.16V0h39.66V129.18H609.93V260.92h71.64ZM435.76,0H552.61V37.52H514v91.66H498.22V298.44h-37V129.18h13.16V37.52h-38.6ZM292.62,0H409.47V37.52h-38.6V298.44H331.22V37.52h-38.6ZM191.23,0,141.92,298.44H182l10.49-74.71h61l10.49,74.71H304l-12.34-74.71H278.49L241.53,0Zm6.4,187.06L216.38,53.48l18.75,133.58Zm-97.47-40c13.22-6.81,18.76-18.32,18.76-36.23V46.9c0-30.7-9.81-46.9-51.16-46.9H0V298.44H70.31c40.93,0,50.31-20,50.31-50.74V184.18C120.62,165.85,114.66,153.91,100.16,147.08ZM39.65,37.52H66.48c11.94,0,13.64,6.39,13.64,19.18v51.17c0,13.21-1.7,21.31-14.07,21.31H39.65ZM81,246.86c0,9.37-3.41,14.06-13.64,14.06H39.65V165.85H66.48c11.08,0,14.49,6,14.49,15.77ZM1494.19,0h10.07V2.14h-3.75V12.66h-2.57V2.14h-3.75Zm23.89,0V12.66h-2.39v-10l-2.5,10h-2.46l-2.51-10v10h-2.38V0h3.82L1512,8.64,1514.24,0ZM1348.79,298.44h-111.3V129.18h13.16V0h39.65V129.18h-13.16V260.92h71.65ZM461.2,447.66V432l49.46-48c3.12-3.12,4.54-4.69,4.54-7.67V369.5c0-3.7-2-5.69-5.68-5.69h-27c-3.7,0-5.69,2-5.69,5.69v11.37H461.2V369.5c0-12.79,8.53-21.32,21.32-21.32h27c12.79,0,21.32,8.53,21.32,21.32v6.82c0,6.11-1.85,11.51-5.54,15.2L483.94,432h46.9v15.63H482.23V437c0-1-1.42-1.56-2.41-.71l-11.94,11.37ZM632.38,369.5c0-12.79,8.52-21.32,21.31-21.32h25.58c12.8,0,21.32,8.53,21.32,21.32v56.84c0,12.79-8.52,21.32-21.32,21.32H653.69c-12.79,0-21.31-8.53-21.31-21.32ZM648,426.34c0,3.7,2,5.69,5.68,5.69h25.58c3.7,0,5.69-2,5.69-5.69V369.5c0-3.7-2-5.69-5.69-5.69H653.69c-3.69,0-5.68,2-5.68,5.69Zm154.12,7.11V417.82l52.44-69.64h15.64v69.64H860c-1,0-1.56,1.42-.71,2.41l11,11.94v15.49H854.57V433.45Zm19.61-15.63h32.83V374.19Zm150,29.84V432l49.45-48c3.13-3.12,4.55-4.69,4.55-7.67V369.5c0-3.7-2-5.69-5.68-5.69h-27c-3.69,0-5.68,2-5.68,5.69v11.37H971.75V369.5c0-12.79,8.52-21.32,21.31-21.32h27c12.79,0,21.31,8.53,21.31,21.32v6.82c0,6.11-1.84,11.51-5.54,15.2L994.48,432h46.9v15.63h-48.6V437c0-1-1.42-1.56-2.42-.71l-11.93,11.37Z"/></g></g></svg>