<svg width="800" height="602" viewBox="0 0 800 602" fill="none" xmlns="http://www.w3.org/2000/svg">
<path d="M147.967 185C90.3496 185 43.543 231.661 43.543 289.364C43.543 346.949 90.2309 393.729 147.967 393.729C205.584 393.729 252.391 347.068 252.391 289.364C252.391 231.661 205.703 185 147.967 185ZM106.387 248.284H166.381L157.233 262.887H97.24L106.387 248.284ZM206.654 321.065L197.506 306.462H170.895L180.043 291.858H188.477L178.261 275.592L149.987 321.065H74.3118L92.488 291.976H79.0638L88.2113 277.373H146.66L137.513 291.976H109.714L100.566 306.58H141.789L178.261 248.284L223.879 321.184H206.654V321.065Z" fill="white"/>
<path d="M756.456 256.001H726.757L695.037 321.778L662.605 256.001H630.886L678.762 353.479L646.805 417H677.693L756.456 256.001ZM564.715 343.625C547.49 343.625 533.59 330.446 533.59 311.686C533.59 292.927 547.49 279.748 564.715 279.748C582.179 279.748 595.841 292.927 595.841 311.686C595.841 330.446 582.179 343.625 564.715 343.625ZM559.726 369.033C573.625 369.033 586.099 363.928 595.484 355.142V367.49H623.877V255.883H595.603V268.231C586.693 259.326 574.338 254.102 560.914 254.102C531.808 254.102 505.435 278.204 505.435 311.567C505.435 344.931 531.333 369.033 559.726 369.033ZM490.704 202.098L462.311 211.002V367.49H490.704V202.098ZM391.982 284.141H356.224V238.548H391.982C406.713 238.548 417.049 247.928 417.049 261.344C417.049 274.761 406.713 284.141 391.982 284.141ZM325.336 211.002V367.49H356.224V310.499H394.239C424.889 310.499 447.699 289.246 447.699 260.394C447.699 231.78 425.721 211.002 395.308 211.002H325.336Z" fill="white"/>
</svg>
